# xmcd CD database file
#
# Track frame offsets:
#	150
#	11901
#	29016
#	45412
#	56323
#	68858
#	87378
#	98557
#	105839
#	120203
#	137790
#	151906
#
# Disc length: 2248 seconds
#
# Revision: 11
# Processed by: cddbd v1.5.2PL0 Copyright (c) Steve Scherf et al.
# Submitted via: CDex 1.51
#
DISCID=8c08c60c
DTITLE=Enya - A Day Without Rain
DYEAR=2000
DGENRE=New Age
TTITLE0=A Day Without Rain
TTITLE1=Wild Child
TTITLE2=Only Time
TTITLE3=Tempus Vernum
TTITLE4=Deora Ar Mo Chro'I
TTITLE5=Flora's Secret
TTITLE6=Fallen Embers
TTITLE7=Silver Inches
TTITLE8=Pilgrim
TTITLE9=One By One
TTITLE10=The First Of Autumn
TTITLE11=Lazy Days
EXTD=YEAR: 2000
EXTT0=
EXTT1=
EXTT2=
EXTT3=
EXTT4=
EXTT5=
EXTT6=
EXTT7=
EXTT8=
EXTT9=
EXTT10=
EXTT11=
PLAYORDER=
